<?xml version="1.0" standalone="no"?>
<!DOCTYPE svg PUBLIC "-//W3C//DTD SVG 20010904//EN"
 "http://www.w3.org/TR/2001/REC-SVG-20010904/DTD/svg10.dtd">
<svg version="1.0" xmlns="http://www.w3.org/2000/svg"
 width="820.000000pt" height="1094.000000pt" viewBox="0 0 820.000000 1094.000000"
 preserveAspectRatio="xMidYMid meet">

<g transform="translate(0.000000,1094.000000) scale(0.100000,-0.100000)"
fill="#000000" stroke="none">
<path d="M3715 9831 c-18 -16 -128 -49 -220 -67 -49 -9 -99 -25 -110 -34 -11
-9 -43 -30 -72 -45 -46 -24 -55 -26 -86 -16 -20 7 -41 18 -47 26 -7 9 -23 12
-46 8 -19 -3 -75 0 -123 7 -84 12 -91 11 -127 -8 -22 -11 -57 -26 -79 -33 -58
-17 -95 -38 -95 -53 0 -14 -41 -56 -56 -56 -18 0 -84 -72 -84 -92 0 -11 -8
-22 -17 -24 -17 -5 -55 -53 -78 -99 -25 -49 -51 -85 -62 -85 -7 0 -15 -11 -19
-24 -3 -13 -19 -36 -35 -51 -32 -28 -53 -71 -45 -92 3 -7 -3 -19 -14 -25 -11
-7 -20 -19 -20 -27 0 -8 -10 -26 -23 -40 -13 -15 -29 -44 -36 -66 -7 -22 -16
-49 -21 -60 -4 -11 -20 -59 -35 -107 -14 -49 -30 -88 -36 -88 -5 0 -9 -11 -9
-24 0 -13 -8 -34 -19 -47 -23 -29 -41 -91 -41 -140 0 -19 -9 -54 -20 -77 -11
-22 -20 -49 -20 -60 0 -10 -4 -22 -9 -27 -13 -15 -41 -105 -41 -133 0 -14 -6
-33 -14 -41 -9 -10 -16 -46 -18 -93 -2 -43 -7 -81 -11 -84 -4 -4 -7 -22 -7
-41 0 -18 -9 -66 -19 -106 -43 -164 -63 -317 -66 -521 -4 -170 -8 -213 -29
-300 -14 -55 -27 -113 -28 -127 -2 -14 -11 -38 -21 -52 -9 -14 -17 -33 -17
-42 0 -9 -7 -18 -15 -22 -23 -8 -42 -51 -50 -113 -5 -37 -14 -59 -29 -71 -12
-9 -27 -34 -35 -55 -7 -22 -20 -47 -28 -56 -8 -9 -19 -31 -24 -50 -24 -92 -35
-126 -46 -139 -6 -8 -21 -40 -33 -72 -12 -31 -28 -63 -36 -71 -8 -8 -14 -21
-14 -29 0 -8 -6 -20 -14 -26 -7 -6 -11 -21 -9 -34 3 -15 -6 -33 -26 -55 -24
-25 -30 -39 -25 -58 6 -24 -10 -35 -19 -11 -2 6 -8 8 -13 4 -5 -4 -2 -12 5
-16 23 -15 3 -62 -45 -105 -32 -29 -44 -47 -44 -67 0 -17 -12 -42 -30 -62 -16
-19 -30 -43 -30 -54 0 -11 -13 -46 -28 -79 -44 -91 -54 -159 -49 -334 3 -137
12 -206 33 -274 6 -19 7 -19 20 -1 8 10 14 15 14 10 0 -16 31 -259 36 -282 6
-30 20 -29 48 4 l23 27 51 -43 c28 -24 53 -49 56 -57 3 -8 12 -14 20 -14 7 0
16 -9 19 -19 3 -13 17 -22 40 -26 29 -6 38 -13 47 -39 7 -22 22 -36 50 -49 46
-21 50 -34 15 -43 -25 -6 -39 -25 -70 -96 -9 -20 -23 -39 -31 -42 -8 -3 -14
-14 -14 -25 0 -10 -6 -21 -14 -24 -9 -4 -16 -23 -18 -48 -3 -39 -6 -43 -43
-56 -21 -7 -42 -18 -45 -23 -4 -6 -49 -12 -101 -15 -98 -4 -199 -23 -199 -37
0 -4 50 -8 111 -8 100 0 110 -2 107 -18 -2 -11 -14 -18 -33 -20 -17 -2 -35 -8
-42 -14 -7 -5 -61 -18 -120 -28 -59 -10 -126 -24 -148 -31 -22 -7 -77 -13
-123 -13 -54 -1 -82 -5 -82 -12 0 -14 23 -24 54 -24 29 0 46 -18 46 -48 0 -23
2 -24 58 -18 65 7 87 -2 79 -33 -4 -18 -2 -20 19 -15 l25 6 -3 -97 -2 -97 -38
4 c-36 3 -38 2 -38 -27 0 -21 3 -26 9 -16 7 11 11 8 17 -10 4 -13 7 -30 6 -36
-2 -7 6 -13 18 -13 12 0 25 -10 32 -25 6 -14 15 -25 19 -25 15 0 54 65 50 84
-5 33 10 127 20 120 18 -10 41 25 35 52 -7 28 16 64 41 64 18 0 17 -69 -2 -94
-15 -20 -20 -58 -10 -68 3 -3 26 -1 51 3 31 6 49 5 58 -3 15 -14 9 -57 -12
-81 -14 -16 -13 -19 6 -40 12 -13 22 -36 22 -51 0 -16 10 -36 26 -51 l26 -24
35 26 c29 22 34 32 32 62 -1 20 -2 68 -1 106 l2 70 22 -35 c26 -43 39 -95 26
-108 -6 -6 -6 -12 1 -16 6 -4 11 -2 11 4 0 6 11 15 24 19 17 7 25 20 30 51 6
41 7 41 39 34 17 -3 39 -15 48 -25 30 -35 62 -3 40 39 -4 9 -11 34 -15 55 -6
32 -4 37 12 37 20 0 52 29 52 48 0 11 6 14 40 16 8 1 17 12 18 25 4 23 5 23
77 16 68 -6 74 -5 80 14 3 12 3 30 0 42 -6 18 -3 20 27 17 l33 -3 2 -77 c2
-68 0 -79 -17 -88 -11 -6 -24 -29 -31 -52 -6 -24 -17 -51 -25 -62 -9 -14 -14
-48 -14 -101 0 -63 -4 -87 -21 -114 -15 -25 -20 -49 -19 -95 1 -64 -15 -194
-32 -261 -62 -236 -65 -250 -79 -457 -9 -133 -9 -187 0 -222 6 -24 11 -63 11
-85 0 -21 8 -54 17 -73 9 -18 19 -39 23 -47 3 -8 11 -16 17 -18 19 -7 26 37
13 83 -15 53 -9 109 18 166 33 70 54 158 57 236 2 41 6 77 10 80 12 12 25 -23
25 -71 0 -32 5 -49 14 -53 8 -3 17 -23 21 -45 11 -65 25 -44 26 39 1 106 12
185 25 189 7 2 15 -8 18 -22 4 -15 18 -44 32 -65 23 -35 25 -45 20 -107 -11
-121 -11 -166 -1 -170 6 -2 15 7 20 19 12 27 55 38 55 14 0 -9 5 -16 10 -16 6
0 10 -9 10 -19 0 -11 5 -23 10 -26 6 -3 10 -15 10 -26 0 -10 4 -18 9 -17 11 4
11 -10 0 -40 -5 -13 -9 -44 -9 -70 0 -50 29 -204 41 -212 3 -3 10 -21 14 -40
4 -19 16 -41 26 -48 11 -7 19 -22 19 -33 0 -25 -36 -60 -54 -53 -16 6 -33 -36
-22 -54 10 -17 163 -31 211 -19 21 5 37 3 50 -7 20 -15 20 -15 -6 -41 -24 -25
-29 -26 -65 -16 -59 17 -109 13 -160 -10 l-45 -22 3 -56 c4 -65 24 -78 60 -38
28 31 81 42 99 21 12 -15 24 -62 38 -148 4 -28 13 -52 19 -54 7 -2 12 -12 12
-22 0 -19 -38 -49 -85 -66 -23 -8 -31 -18 -33 -40 -2 -16 -21 -52 -43 -80 -21
-28 -39 -58 -39 -68 0 -9 -7 -19 -15 -23 -20 -7 -73 -121 -84 -179 -5 -24 -16
-53 -25 -63 -18 -20 -20 -39 -6 -90 5 -20 12 -49 16 -66 6 -29 6 -29 26 25 34
93 60 143 107 205 43 56 46 58 51 35 11 -41 -4 -65 -35 -62 -17 2 -24 -1 -20
-8 3 -6 10 -8 15 -5 5 3 10 -5 12 -17 2 -13 9 -22 16 -20 16 3 34 -43 34 -85
0 -18 6 -37 14 -44 8 -6 14 -29 14 -51 0 -22 6 -52 14 -66 7 -15 19 -45 26
-67 19 -60 49 -88 51 -47 0 9 6 -3 13 -28 7 -25 17 -54 23 -65 22 -42 32 -71
37 -110 8 -67 18 -105 28 -111 13 -9 58 36 58 58 0 10 4 18 9 18 11 0 -4 -60
-16 -69 -5 -3 -8 -25 -9 -49 -1 -34 3 -42 18 -42 15 0 18 8 18 43 0 86 32 87
45 0 l6 -43 190 0 189 0 0 25 c0 14 -8 29 -20 35 -20 11 -28 50 -10 50 24 0
34 95 15 143 -9 22 3 89 14 82 5 -2 12 -21 15 -40 10 -50 24 -43 32 16 4 33
13 55 25 62 11 7 19 20 19 30 0 11 6 31 14 45 23 43 56 133 56 151 0 9 16 41
35 71 19 30 35 59 35 64 0 4 11 21 25 38 14 16 25 36 25 43 0 7 11 22 25 33
14 11 25 24 25 30 0 6 20 31 45 56 25 26 45 53 45 60 0 7 14 25 30 41 35 34
38 45 10 45 -30 0 -100 -48 -100 -68 0 -10 -9 -24 -20 -32 -11 -8 -20 -20 -20
-26 0 -7 -13 -18 -29 -25 -20 -9 -31 -23 -35 -42 -4 -21 -10 -28 -21 -23 -11
4 -19 -3 -25 -20 -6 -14 -14 -22 -20 -19 -13 8 -13 35 0 35 5 0 12 11 16 25 4
15 16 28 30 31 13 3 24 12 24 19 0 6 9 20 20 30 11 10 20 24 20 32 0 24 -24
13 -55 -24 -16 -20 -38 -44 -47 -54 -10 -11 -18 -28 -18 -39 0 -11 -7 -20 -15
-20 -8 0 -19 -9 -25 -20 -17 -32 -33 -24 -24 12 9 42 35 98 46 98 4 0 8 5 8
10 0 6 16 36 35 66 19 30 35 59 35 64 0 6 11 10 25 10 17 0 28 7 34 23 5 13
25 35 45 51 22 16 36 36 36 48 0 35 49 98 76 98 21 0 24 -5 24 -41 0 -22 4
-38 9 -34 13 7 41 -23 41 -44 0 -11 -8 -17 -22 -16 -29 0 -36 -19 -8 -23 24
-4 25 -10 4 -33 -9 -10 -14 -24 -12 -31 3 -9 18 0 42 24 21 21 44 38 52 38 8
0 19 9 26 20 7 11 18 20 25 20 6 0 18 9 25 19 10 13 18 17 28 11 12 -7 12 -13
0 -35 -8 -15 -24 -31 -36 -36 -12 -4 -25 -17 -29 -29 -4 -11 -26 -40 -51 -64
-24 -24 -44 -48 -44 -54 0 -6 -12 -24 -26 -41 -23 -28 -24 -31 -7 -31 33 0 63
29 63 61 0 33 7 37 26 11 7 -9 17 -18 23 -18 6 -1 16 -2 21 -3 19 -2 10 -39
-11 -44 -11 -3 -23 -15 -26 -26 -3 -11 -17 -25 -32 -31 -52 -22 -71 -35 -71
-48 0 -8 -9 -16 -19 -19 -11 -3 -22 -15 -25 -28 -4 -15 -16 -24 -34 -28 -39
-8 -182 -145 -182 -174 0 -13 -9 -28 -20 -35 -11 -7 -20 -21 -20 -31 0 -10 -9
-35 -20 -57 -11 -22 -20 -54 -20 -71 l0 -32 23 21 c13 12 27 22 31 22 10 0 -4
-43 -16 -51 -14 -9 9 -86 30 -101 10 -7 24 -33 31 -57 7 -24 26 -57 42 -73 16
-16 29 -35 29 -41 0 -7 16 -29 35 -50 l35 -37 1854 0 1853 0 37 33 c20 18 36
39 36 45 0 7 39 50 88 97 107 105 94 91 141 147 21 26 41 52 43 59 6 18 28 1
28 -20 0 -10 7 -24 15 -31 8 -7 12 -16 9 -21 -3 -5 2 -6 10 -3 11 4 17 21 18
53 3 77 7 114 17 171 6 30 15 105 21 165 14 148 30 277 35 292 2 7 16 13 30
13 24 0 25 3 25 58 -1 31 -7 93 -16 137 -8 44 -17 104 -21 133 -3 28 -9 52
-14 52 -9 0 -29 64 -29 93 0 9 5 17 10 17 6 0 10 -5 10 -11 0 -5 14 -37 30
-71 17 -33 30 -68 30 -79 0 -10 6 -33 14 -51 35 -82 41 -124 41 -310 0 -191 3
-199 32 -83 17 67 17 66 11 260 -3 97 -9 151 -20 175 -9 19 -22 55 -29 80 -8
24 -28 66 -46 92 -18 26 -33 52 -33 58 0 5 -11 17 -25 26 -13 8 -33 35 -45 59
-12 24 -28 49 -36 55 -7 7 -14 20 -14 29 0 20 -50 71 -68 71 -14 0 -38 47 -29
56 16 16 157 -82 157 -109 0 -14 81 -101 102 -109 9 -4 36 -46 59 -93 31 -64
46 -85 61 -85 18 0 20 4 13 47 -4 26 -15 58 -26 71 -10 14 -19 30 -19 37 0 7
-11 25 -25 41 -14 16 -37 44 -52 62 -55 63 -79 84 -125 108 -27 13 -48 29 -48
34 0 6 -7 10 -15 10 -8 0 -31 11 -51 25 -20 14 -49 25 -64 25 -15 0 -33 7 -40
15 -7 8 -23 15 -36 15 -15 0 -24 6 -24 15 0 9 -8 18 -17 22 -10 3 -30 18 -45
32 -45 44 -85 71 -107 71 -11 0 -28 8 -38 19 -10 10 -29 22 -43 26 -29 9 -38
16 -99 76 -50 49 -53 50 -141 53 -67 3 -100 12 -100 27 0 5 13 9 29 9 27 0 49
15 39 26 -3 2 -25 6 -49 8 -57 5 -56 5 -39 16 20 13 90 13 90 0 0 -5 12 -12
28 -16 48 -11 116 -35 167 -58 94 -44 126 -56 149 -56 36 0 95 -24 168 -69 37
-22 71 -41 75 -41 5 0 53 -27 107 -60 55 -33 104 -60 108 -60 5 0 23 -14 41
-31 18 -16 48 -39 68 -49 39 -21 96 -75 110 -105 5 -11 19 -35 30 -54 33 -54
58 -131 69 -207 5 -38 16 -116 25 -174 8 -58 15 -120 15 -138 0 -33 40 -125
60 -137 10 -6 99 -186 120 -241 5 -13 14 -24 19 -24 6 0 14 -14 19 -32 4 -17
13 -33 20 -36 9 -3 12 377 12 1706 l0 1709 -52 -4 c-29 -3 -64 -8 -78 -13 -59
-22 -258 6 -220 30 8 6 27 10 43 10 38 0 34 13 -10 30 -26 10 -86 15 -183 16
-155 2 -242 15 -302 45 -21 11 -44 19 -53 19 -23 0 -18 28 8 35 70 19 103 30
109 39 4 6 22 5 50 -2 55 -14 157 -21 164 -11 8 13 -42 59 -64 59 -12 0 -27 8
-34 18 -8 12 -37 23 -78 31 -36 7 -74 21 -85 31 -11 10 -54 33 -95 51 -41 17
-77 35 -80 40 -13 19 -139 69 -191 75 -42 5 -64 13 -80 30 -14 14 -34 24 -51
24 -32 0 -49 27 -27 41 12 8 11 11 -2 22 -9 7 -31 41 -49 77 -18 36 -41 75
-52 87 -11 12 -24 43 -29 68 -5 28 -22 63 -42 88 -19 23 -49 76 -68 117 -18
41 -44 90 -57 109 -12 19 -25 45 -28 57 -3 13 -21 32 -40 43 -19 11 -34 28
-34 37 0 16 -12 31 -80 99 -84 85 -133 130 -210 195 -47 40 -115 100 -152 135
-36 34 -98 86 -138 116 -39 30 -73 64 -77 77 -3 12 -14 27 -24 33 -10 5 -25
22 -33 37 -8 16 -32 47 -53 69 -89 95 -134 167 -182 290 -11 29 -32 71 -46 93
-33 52 -75 144 -76 167 -1 13 -3 10 -9 -7 -4 -14 -5 -85 -3 -159 4 -132 12
-168 48 -211 7 -8 15 -41 18 -74 4 -42 12 -65 29 -83 21 -23 22 -30 21 -179
-2 -156 -2 -156 17 -133 l20 22 0 -46 c0 -25 -4 -48 -9 -52 -5 -3 -12 -19 -16
-36 -4 -16 -15 -38 -24 -47 -10 -9 -23 -31 -28 -47 -12 -36 -53 -97 -96 -145
-62 -67 -166 -204 -184 -239 -10 -20 -21 -72 -24 -116 -12 -134 -37 -356 -48
-420 -13 -75 -14 -431 -1 -456 14 -24 12 -66 -2 -107 -12 -31 -11 -35 11 -53
13 -10 18 -19 12 -19 -6 0 -20 -15 -32 -32 -16 -27 -19 -43 -14 -88 3 -30 8
-102 11 -160 3 -58 12 -124 21 -147 16 -43 16 -43 57 -37 46 7 66 20 66 40 0
11 17 14 66 14 91 0 104 -9 104 -70 0 -27 4 -51 9 -54 10 -7 -24 -103 -45
-127 -8 -8 -14 -23 -14 -31 0 -9 -24 -51 -52 -93 -29 -42 -61 -90 -71 -107
-10 -17 -29 -40 -43 -50 -13 -11 -24 -25 -24 -31 0 -7 -18 -35 -41 -62 -22
-28 -50 -63 -62 -79 -12 -16 -34 -41 -49 -56 -16 -16 -28 -32 -28 -37 -1 -19
-58 -73 -103 -96 -61 -33 -127 -43 -170 -27 -71 27 -299 149 -390 207 -27 18
-55 29 -63 26 -11 -4 -14 5 -14 36 0 34 -3 41 -17 39 -16 -3 -18 11 -20 152
-2 109 -7 169 -18 204 -13 40 -14 50 -3 60 42 35 43 46 9 77 -26 23 -32 35
-27 54 3 13 1 36 -4 51 -9 23 -7 31 15 54 39 41 29 89 -17 82 -13 -2 -19 10
-28 52 -8 38 -18 59 -35 70 -17 11 -23 24 -23 46 1 16 -11 47 -25 70 -15 22
-27 47 -27 56 0 9 -22 62 -49 118 -27 57 -52 118 -56 137 -4 19 -18 53 -31 76
-13 23 -24 53 -24 67 0 16 -9 32 -26 42 -33 23 -66 88 -60 122 2 15 7 46 11
69 8 48 -10 124 -37 153 -33 35 -23 43 43 36 34 -3 73 -6 85 -6 14 0 24 -6 24
-14 0 -10 24 -15 90 -20 50 -4 105 -12 123 -17 17 -5 59 -12 91 -14 33 -3 63
-11 68 -18 6 -9 8 -9 8 1 0 6 11 12 25 12 14 0 25 4 25 9 0 5 10 12 23 14 13
3 7 5 -16 6 -21 0 -48 6 -59 12 -12 6 -50 18 -86 25 -36 7 -75 20 -88 29 -13
8 -32 15 -43 15 -11 0 -36 9 -56 20 -20 11 -45 20 -57 20 -12 0 -35 4 -52 9
-17 5 -58 17 -91 26 -80 23 -135 45 -164 67 -13 10 -36 18 -51 18 -15 0 -39 9
-53 20 -14 11 -30 20 -35 20 -53 0 -292 163 -292 199 0 6 -8 11 -18 11 -10 0
-31 18 -48 41 -16 23 -40 51 -52 63 -33 29 -77 115 -78 151 -2 58 -4 68 -11
62 -9 -9 -43 43 -43 66 0 9 5 17 10 17 14 0 13 117 -2 143 -11 21 -14 50 -20
267 -2 60 -7 100 -15 108 -23 24 -16 88 12 115 21 18 27 36 32 90 3 37 10 67
14 67 5 0 9 18 9 40 0 22 -5 40 -11 40 -6 0 -2 16 10 36 12 19 21 45 21 58 0
27 35 46 86 46 28 0 44 9 83 49 36 37 59 51 87 56 22 3 50 9 64 12 14 4 34 8
45 9 38 4 194 69 200 82 3 9 -2 12 -18 10 -18 -2 -22 2 -22 26 0 40 31 43 66
5 31 -33 39 -35 79 -14 22 12 30 23 30 43 0 31 -9 47 -27 48 -28 2 -32 5 -37
22 -6 19 -72 46 -88 36 -5 -3 -4 -12 3 -20 10 -12 0 -14 -59 -14 -39 0 -81 -4
-94 -9 -13 -5 -45 -14 -73 -20 -27 -7 -52 -16 -55 -20 -3 -4 -33 -22 -67 -38
-43 -21 -63 -27 -63 -18 0 15 53 71 93 98 27 18 36 37 17 37 -5 0 -19 -9 -30
-20 -11 -11 -33 -20 -49 -20 -17 0 -33 -4 -36 -10 -10 -15 -71 -12 -85 5 -13
16 -7 60 12 82 6 7 20 13 32 13 12 0 31 7 42 15 10 8 25 15 32 15 7 0 25 9 40
19 22 15 52 20 157 25 145 7 265 24 265 38 0 18 -58 80 -69 73 -5 -2 -25 2
-45 10 -19 8 -63 15 -96 15 -74 0 -201 -18 -215 -31 -5 -5 -18 -9 -30 -9 -11
0 -31 -7 -44 -16 -44 -31 -141 5 -141 53 0 13 -4 32 -10 42 -10 20 -25 342
-25 541 1 151 36 345 67 361 12 7 18 21 18 45 0 34 53 134 71 134 4 0 10 15
13 33 4 22 15 38 30 45 14 6 30 23 38 39 7 15 23 29 35 31 11 2 23 11 26 22 2
10 15 20 27 22 13 1 27 11 31 21 5 9 13 25 18 35 4 9 17 18 27 20 60 9 61 10
60 49 -1 43 18 57 95 68 42 6 49 4 83 -26 32 -28 50 -34 124 -45 48 -7 130
-20 182 -29 52 -8 122 -20 155 -25 33 -5 82 -18 108 -29 27 -12 55 -21 64 -21
8 0 26 -9 40 -20 14 -11 33 -20 41 -20 19 0 133 -77 146 -99 5 -9 29 -36 52
-61 23 -25 52 -65 64 -90 12 -25 29 -49 36 -53 8 -4 14 -14 14 -21 0 -29 51
-123 85 -156 21 -21 35 -44 35 -59 0 -24 62 -145 80 -156 14 -8 60 -108 60
-128 0 -12 -8 -17 -25 -17 -14 0 -38 -9 -53 -19 -15 -11 -45 -22 -67 -25 -60
-8 -95 -17 -101 -27 -3 -5 -15 -9 -27 -9 -12 -1 -38 -14 -57 -30 -19 -17 -44
-30 -55 -30 -12 0 -33 -12 -48 -27 -34 -36 -82 -73 -95 -73 -14 0 -92 -99 -92
-116 0 -18 40 -18 65 -1 11 8 49 24 85 37 36 13 74 31 86 42 11 10 27 18 35
18 18 0 85 33 108 53 35 31 70 41 156 44 121 4 135 0 135 -38 0 -56 -40 -103
-95 -112 -11 -2 -38 -8 -60 -15 -54 -14 -131 -32 -179 -40 -35 -6 -65 -32 -37
-32 15 0 14 -19 -3 -36 -22 -21 -36 -17 -36 11 0 29 -27 35 -37 8 -4 -9 -17
-26 -30 -38 -25 -21 -62 -108 -70 -162 -7 -46 17 -52 81 -21 36 18 75 27 131
32 44 3 103 13 130 22 76 23 85 26 147 31 56 5 56 5 60 -23 l3 -29 95 -5 c106
-6 124 -12 114 -42 -4 -13 2 -29 18 -46 13 -15 30 -45 37 -67 20 -59 92 -229
102 -239 24 -26 8 44 -47 209 -18 54 -43 180 -59 295 -17 120 -28 173 -47 230
-9 25 -21 72 -28 105 -11 55 -32 128 -47 165 -4 8 -12 33 -19 55 -25 80 -100
263 -135 327 -5 10 -9 25 -9 34 0 9 -11 29 -25 46 -14 16 -25 36 -25 44 0 8
-4 14 -9 14 -4 0 -18 21 -29 48 -25 55 -84 152 -130 213 -69 91 -295 327 -335
348 -12 6 -28 24 -35 39 -7 15 -29 35 -52 46 -22 10 -47 27 -55 36 -27 30 17
32 51 4 16 -14 43 -31 59 -39 34 -17 93 -57 116 -80 9 -8 20 -15 26 -15 5 0
18 -9 28 -20 10 -11 24 -20 31 -20 6 0 21 -16 32 -35 12 -19 31 -37 44 -40 15
-4 33 -25 52 -65 16 -32 39 -63 52 -68 12 -6 28 -24 35 -41 8 -17 17 -31 21
-31 6 0 72 -86 93 -121 53 -91 78 -131 89 -142 7 -7 19 -24 26 -37 7 -14 29
-44 49 -67 19 -23 36 -49 37 -58 1 -8 23 -49 48 -91 25 -42 46 -80 46 -84 0
-4 7 -13 15 -20 8 -7 13 -16 10 -20 -3 -4 2 -21 10 -36 8 -16 15 -45 15 -65 0
-20 7 -42 15 -49 8 -7 15 -18 15 -24 0 -7 16 -50 37 -97 20 -46 42 -104 49
-129 6 -25 26 -83 44 -130 18 -47 37 -107 43 -135 9 -43 35 -94 67 -132 5 -7
10 -20 10 -29 0 -21 95 -218 118 -244 9 -11 34 -37 55 -59 20 -22 37 -46 37
-54 0 -7 9 -22 20 -32 11 -10 20 -24 20 -31 0 -7 6 -19 14 -26 7 -8 16 -23 20
-34 3 -12 20 -36 36 -54 36 -40 35 -39 10 -37 -11 1 -20 7 -20 14 0 7 -13 28
-30 46 -16 19 -30 40 -30 46 0 6 -5 11 -11 11 -14 0 -88 81 -89 97 0 6 -11 20
-23 30 -13 10 -32 35 -41 55 -10 21 -26 40 -36 43 -12 4 -20 20 -25 50 -6 47
-26 59 -43 29 -5 -10 -14 -14 -21 -9 -9 5 -7 13 8 29 l21 22 -40 79 c-38 76
-40 78 -41 45 -1 -19 -1 -43 0 -52 2 -18 -32 -42 -43 -30 -15 15 40 -102 89
-188 9 -16 10 -27 4 -31 -18 -11 -41 -63 -41 -91 1 -28 46 -108 62 -108 5 0
14 -18 21 -39 6 -21 22 -51 35 -66 13 -16 24 -33 24 -38 0 -5 50 -58 110 -117
61 -59 110 -112 110 -117 0 -6 7 -16 15 -23 12 -10 18 -10 30 0 21 17 31 -13
16 -47 -15 -34 1 -53 24 -29 31 31 70 9 70 -39 0 -27 3 -30 33 -31 23 0 42
-10 66 -35 44 -45 83 -72 126 -89 19 -7 46 -23 60 -35 14 -13 35 -26 48 -30
12 -3 22 -11 22 -16 0 -5 8 -9 19 -9 10 0 24 -6 30 -14 6 -8 24 -16 39 -19 90
-18 151 -36 174 -51 45 -30 43 1 -5 62 -24 31 -48 68 -52 82 -4 14 -20 46 -36
71 -16 25 -29 54 -29 63 0 10 -9 20 -20 23 -14 4 -20 14 -20 35 0 24 -3 28
-18 24 -10 -4 -26 0 -36 7 -18 13 -18 14 0 31 17 18 18 18 31 0 7 -9 16 -14
20 -11 4 4 1 13 -5 19 -7 7 -12 29 -12 49 0 20 -7 53 -16 74 -18 43 -14 51 16
35 37 -20 39 -6 6 33 -17 21 -42 39 -54 40 -19 1 -22 6 -17 25 3 13 1 30 -6
38 -6 8 -9 14 -5 14 4 0 -3 18 -14 40 -11 21 -20 54 -20 72 0 19 -7 58 -16 88
-8 30 -18 69 -21 85 -9 49 -95 216 -130 253 -7 7 -13 26 -13 42 0 19 -8 33
-25 44 -15 10 -25 26 -25 40 0 14 -26 55 -65 102 -35 44 -65 89 -65 100 0 12
-7 24 -15 28 -8 3 -20 17 -25 31 -5 14 -15 25 -21 25 -19 0 -48 44 -49 73 0
17 -5 27 -15 27 -8 0 -15 9 -15 19 0 11 -10 27 -22 36 -23 15 -47 90 -48 146
0 15 -7 29 -15 33 -8 3 -15 18 -15 33 0 16 -6 37 -14 48 -7 11 -16 34 -20 50
-4 17 -21 50 -37 74 -16 25 -29 50 -29 58 0 7 -4 13 -10 13 -5 0 -10 13 -10
29 0 15 -8 39 -18 52 -29 37 -45 115 -32 154 9 28 7 38 -12 71 -12 22 -32 52
-45 67 -13 16 -23 35 -23 42 0 8 -13 29 -29 47 -15 18 -45 65 -66 103 -43 81
-54 97 -65 90 -4 -3 -13 9 -20 25 -7 16 -22 40 -34 53 -12 13 -49 57 -83 98
-58 71 -229 249 -239 249 -6 0 -99 72 -150 115 -16 15 -40 32 -51 38 -12 7
-57 34 -100 61 -176 110 -312 185 -334 186 -9 0 -27 8 -40 19 -13 10 -49 26
-79 36 -30 10 -71 24 -90 32 -26 10 -44 11 -69 4 -28 -9 -38 -7 -59 9 -20 16
-40 20 -106 20 -45 0 -86 5 -92 10 -6 6 -14 6 -19 1z m-965 -1132 c-7 -11 -14
-18 -17 -15 -8 8 5 36 17 36 7 0 7 -6 0 -21z m-40 -93 c0 -8 -4 -18 -10 -21
-5 -3 -10 3 -10 14 0 12 5 21 10 21 6 0 10 -6 10 -14z m-43 -288 c0 -117 6
-226 17 -303 9 -66 15 -132 13 -147 -4 -32 17 -39 31 -10 5 9 12 67 15 127 4
61 13 148 22 195 8 47 15 102 15 122 0 20 4 39 8 42 10 6 7 -72 -7 -199 -15
-122 -13 -200 3 -263 8 -29 18 -87 21 -130 4 -42 13 -90 19 -107 7 -16 13 -48
14 -70 2 -22 9 -60 17 -85 27 -84 55 -185 66 -238 6 -29 17 -59 25 -66 8 -8
14 -30 14 -49 0 -19 5 -58 10 -87 13 -69 6 -92 -25 -84 l-24 6 6 -74 c3 -45
12 -80 21 -91 14 -15 14 -23 3 -50 -7 -18 -17 -52 -21 -77 -5 -25 -16 -62 -25
-84 -16 -37 -17 -38 -36 -20 -10 9 -19 25 -19 35 0 9 -5 19 -11 21 -7 2 -13
19 -14 37 -1 24 4 36 22 48 18 12 23 24 23 57 0 23 4 46 10 52 5 5 12 46 16
92 5 55 11 82 19 82 7 0 15 10 19 23 7 30 -13 105 -24 88 -4 -7 -10 -12 -14
-11 -25 6 -48 -66 -46 -143 1 -52 -9 -80 -26 -73 -10 4 -14 -3 -14 -28 0 -19
-6 -36 -13 -39 -7 -3 -19 -24 -26 -47 -9 -31 -15 -40 -24 -31 -29 29 -67 -14
-67 -77 0 -17 -6 -22 -25 -22 -15 0 -25 6 -25 14 0 21 -20 30 -33 17 -16 -16
-40 -14 -33 4 4 10 -1 15 -14 15 -11 0 -20 6 -20 13 0 19 34 57 51 58 10 0 11
2 2 6 -17 6 -16 30 1 36 19 7 36 -40 29 -79 l-6 -29 22 27 c11 14 21 34 21 43
0 9 12 28 27 43 24 24 36 58 67 185 3 15 13 27 21 27 23 0 25 219 3 313 -12
48 -28 64 -28 27 0 -11 -5 -20 -10 -20 -6 0 -8 10 -5 23 9 36 -12 378 -24 390
-6 6 -11 26 -11 43 0 18 -10 49 -21 69 -19 32 -23 60 -31 236 -7 140 -6 209 1
231 6 17 11 62 11 99 0 38 4 69 9 69 5 0 9 -82 8 -182z m172 145 c-1 -21 -5
-49 -9 -63 -6 -19 -8 -9 -9 38 -1 35 3 62 9 62 6 0 10 -17 9 -37z m2521 -539
c0 -9 -5 -14 -12 -12 -18 6 -21 28 -4 28 9 0 16 -7 16 -16z m135 -364 c7 -24
7 -24 -9 -5 -8 11 -16 27 -16 35 0 20 16 1 25 -30z m-603 3 c41 -13 47 -18 33
-26 -10 -5 -42 -7 -72 -4 -33 3 -76 0 -109 -9 -86 -22 -98 -19 -68 21 10 13
32 22 67 26 85 10 96 10 149 -8z m-2272 -350 c0 -7 -4 -13 -10 -13 -5 0 -10
12 -10 28 0 21 2 24 10 12 5 -8 10 -21 10 -27z m2848 -42 c3 -16 -1 -22 -10
-19 -7 3 -15 15 -16 27 -3 16 1 22 10 19 7 -3 15 -15 16 -27z m113 -332 c3
-13 11 -23 16 -22 6 1 9 -6 6 -17 -3 -11 -11 -20 -19 -20 -21 0 -47 46 -39 70
8 27 28 21 36 -11z m-2941 5 c0 -8 -5 -12 -10 -9 -6 4 -8 11 -5 16 9 14 15 11
15 -7z m3025 -100 c17 -19 47 -55 68 -78 37 -43 44 -56 29 -56 -13 0 -112 95
-112 108 0 7 -7 15 -15 18 -15 6 -22 44 -7 44 4 0 21 -16 37 -36z m-3234 -67
c-16 -16 -20 -5 -8 23 9 22 11 23 14 6 3 -10 0 -23 -6 -29z m3509 -17 c16 -16
36 -30 45 -30 8 0 15 -4 15 -9 0 -5 3 -16 6 -25 10 -26 -16 -18 -44 14 -18 20
-36 30 -54 30 -29 0 -33 6 -22 34 9 23 21 20 54 -14z m-3425 -10 c3 -5 15 -10
25 -10 10 0 20 -8 22 -17 3 -16 4 -16 20 0 23 23 48 22 48 -3 0 -11 -4 -20 -9
-20 -5 0 -52 -43 -104 -95 -53 -52 -102 -95 -109 -95 -7 0 -38 -23 -68 -50
-30 -27 -64 -51 -75 -52 -11 -2 -24 -13 -30 -25 -6 -15 -16 -21 -26 -18 -8 3
-24 -3 -33 -14 -16 -18 -21 -18 -58 -5 -22 7 -44 11 -49 8 -15 -9 -10 -24 12
-32 19 -7 19 -9 5 -21 -14 -11 -16 -11 -16 3 0 21 -29 21 -37 0 -3 -8 -16 -20
-29 -25 -25 -9 -32 -33 -14 -44 14 -8 -11 -53 -46 -86 -16 -15 -42 -43 -57
-63 -23 -29 -34 -36 -63 -36 -31 0 -35 -3 -29 -17 14 -34 10 -48 -14 -51 -36
-6 -41 9 -22 65 12 35 36 72 69 107 29 30 52 60 52 65 0 6 9 11 19 11 11 0 22
8 25 18 3 10 28 35 55 55 27 21 61 50 76 65 15 15 38 31 51 37 32 13 214 194
214 212 0 7 7 16 15 19 8 3 17 14 20 25 5 15 16 19 48 19 39 0 43 3 61 40 19
39 38 50 51 30z m3600 -115 c22 -18 77 -50 123 -71 66 -31 82 -42 82 -60 0
-32 -34 -37 -61 -8 -12 13 -31 24 -41 24 -10 0 -35 18 -55 40 -21 22 -47 40
-58 40 -11 1 -37 16 -57 34 l-37 33 32 0 c21 0 45 -10 72 -32z m-3265 1 c0 -8
-4 -18 -10 -21 -5 -3 -10 3 -10 14 0 12 5 21 10 21 6 0 10 -6 10 -14z m-120
-45 c0 -43 -16 -78 -39 -86 -31 -10 -36 -43 -12 -76 12 -15 21 -37 21 -47 0
-23 -45 -66 -59 -57 -16 9 -14 25 3 25 9 0 15 14 18 40 2 24 -1 40 -7 40 -18
0 -35 -23 -35 -46 0 -12 -7 -24 -15 -28 -20 -7 -19 -26 1 -26 22 0 15 -54 -8
-58 -12 -2 -18 3 -18 17 0 28 -19 36 -35 15 -11 -16 -10 -20 6 -32 10 -7 19
-18 19 -23 0 -15 -160 -169 -175 -169 -7 0 -20 -9 -30 -20 -10 -11 -27 -22
-39 -26 -11 -4 -36 -24 -54 -45 -21 -25 -42 -39 -57 -39 -13 0 -27 -5 -30 -10
-6 -9 -51 -42 -104 -75 -9 -5 -37 -29 -62 -51 -25 -23 -56 -47 -70 -54 -13 -7
-28 -19 -32 -26 -4 -8 -14 -14 -21 -14 -15 0 -170 -151 -242 -236 l-45 -52 12
-84 c6 -45 13 -104 14 -130 2 -25 11 -60 20 -78 12 -23 17 -63 18 -155 2 -119
3 -124 25 -135 l23 -10 -20 -26 c-12 -15 -21 -33 -21 -40 0 -9 -12 -14 -34
-14 -27 0 -42 9 -80 50 -25 27 -46 55 -46 61 0 7 -8 5 -20 -6 -21 -19 -22 -18
-79 42 -68 72 -101 134 -94 181 3 17 9 32 14 32 5 0 9 9 9 21 0 11 18 38 40
60 22 22 40 44 40 49 0 5 13 24 28 42 16 18 41 54 56 80 15 26 41 62 57 79 16
17 29 35 29 39 0 9 56 79 100 127 17 17 30 35 30 40 1 17 96 133 130 158 19
14 67 57 106 95 39 39 74 70 78 70 15 0 73 67 79 91 8 30 80 109 100 109 8 0
18 17 23 38 6 23 17 41 32 47 12 5 22 13 22 17 0 5 7 8 15 8 8 0 15 8 15 18 0
31 72 92 116 99 21 3 50 15 64 27 14 12 38 28 53 36 20 10 27 20 23 32 -3 14
3 20 25 25 16 3 29 12 29 20 0 25 44 72 68 72 18 1 22 -4 22 -28z m-1010 -642
c0 -24 -49 -89 -67 -89 -7 0 -13 7 -13 16 0 18 23 44 39 44 6 0 11 11 11 25 0
16 6 25 15 25 8 0 15 -9 15 -21z m-94 -148 c-6 -2 -16 -10 -23 -18 -7 -9 -19
-13 -28 -9 -15 5 -14 8 2 30 10 14 25 26 33 28 17 4 33 -25 16 -31z m1035 -52
c-9 -22 -10 -22 -10 -3 -1 11 2 24 6 27 12 12 14 0 4 -24z m-26 -101 c-4 -13
-9 -36 -12 -53 -3 -16 -12 -33 -19 -38 -7 -4 -18 -23 -24 -42 -6 -19 -16 -35
-21 -35 -5 0 -9 -9 -9 -20 0 -12 -7 -20 -16 -20 -9 0 -18 -9 -21 -20 -3 -11
-9 -20 -13 -20 -4 0 -20 -30 -35 -67 -36 -87 -75 -152 -97 -159 -9 -2 -26 -19
-37 -37 -40 -62 -46 -71 -68 -96 -13 -14 -23 -30 -23 -34 0 -5 -23 -39 -50
-75 -28 -37 -56 -82 -62 -99 -7 -18 -19 -35 -28 -38 -21 -7 -50 -57 -50 -89 0
-14 -5 -26 -11 -26 -5 0 -17 -16 -25 -36 -8 -20 -24 -45 -34 -56 -10 -11 -24
-43 -31 -72 -7 -28 -18 -55 -24 -61 -7 -5 -18 -31 -26 -57 -7 -27 -19 -48 -26
-48 -16 0 -16 1 -1 114 6 50 17 98 24 106 6 8 15 29 19 47 4 19 14 35 26 38
10 4 19 14 19 24 0 10 8 29 18 42 25 35 40 60 58 94 16 34 34 62 81 128 17 25
34 55 38 66 3 12 15 26 26 31 10 6 19 16 19 22 0 5 14 26 31 46 18 20 40 55
51 79 10 24 22 43 27 43 11 0 71 95 71 113 0 9 9 18 19 22 21 6 38 38 23 43
-12 4 -3 42 9 42 5 0 9 -4 9 -10 0 -5 5 -10 10 -10 6 0 10 8 10 17 0 9 6 32
12 50 9 25 20 36 41 40 19 4 37 19 53 44 13 22 28 39 33 39 5 0 12 11 15 25 4
14 11 25 17 25 7 0 9 -9 4 -22z m-1140 -52 c-4 -21 -13 -36 -21 -36 -17 0 -19
43 -3 72 16 30 32 7 24 -36z m-105 -190 c0 -7 -7 -19 -15 -26 -12 -10 -15 -9
-15 7 0 11 3 23 7 26 11 12 23 8 23 -7z m5354 -577 c13 -22 15 -29 5 -24 -28
16 -48 38 -43 46 9 16 19 10 38 -22z m-1474 -93 c0 -77 -6 -69 -14 19 -5 49
-4 66 3 55 6 -8 11 -42 11 -74z m-2180 -73 c-15 -11 -20 -25 -20 -58 0 -25 -8
-58 -19 -77 -10 -18 -22 -48 -26 -66 -4 -18 -15 -38 -26 -45 -10 -6 -19 -17
-19 -24 0 -6 -11 -25 -25 -41 -14 -17 -25 -34 -25 -39 0 -4 -12 -24 -27 -43
-16 -19 -44 -65 -63 -102 -19 -38 -38 -68 -42 -68 -4 0 -8 -6 -8 -14 0 -8 -6
-21 -12 -28 -23 -23 -66 -92 -73 -115 -3 -13 -13 -23 -21 -23 -12 0 -18 -11
-16 -31 1 -4 -8 -15 -18 -24 -11 -10 -20 -23 -20 -30 0 -6 -16 -37 -35 -69
-19 -32 -35 -69 -35 -82 0 -13 -9 -29 -20 -36 -11 -7 -20 -23 -20 -36 0 -12
-4 -30 -9 -40 -55 -107 -63 -160 -68 -404 -3 -157 -1 -228 6 -228 7 0 11 23
11 54 0 72 16 80 24 13 9 -78 7 -155 -4 -162 -13 -8 -13 -45 -1 -45 5 0 11 6
14 13 11 30 20 -11 28 -130 14 -204 20 -246 38 -269 35 -45 45 -124 32 -252
-7 -64 -16 -126 -21 -137 -4 -11 -13 -39 -19 -62 -9 -32 -17 -43 -31 -43 -18
0 -20 7 -19 85 2 88 -5 113 -22 82 -12 -20 -25 -22 -27 -4 -3 47 -21 120 -35
141 -10 14 -17 32 -17 40 0 8 -8 20 -17 25 -11 6 -13 11 -5 11 8 0 6 8 -7 22
-22 23 -26 32 -36 91 -3 21 -14 43 -25 50 -13 7 -20 23 -20 42 -1 16 -8 48
-16 70 -32 82 -60 247 -46 271 9 16 12 13 27 -23 9 -23 23 -44 31 -47 8 -3 14
-19 14 -39 0 -18 7 -42 15 -53 8 -10 15 -32 15 -47 0 -15 15 -58 34 -95 19
-37 37 -89 41 -117 7 -51 46 -128 53 -106 2 6 -1 18 -7 25 -7 9 -11 49 -10
106 2 71 -1 95 -12 104 -21 17 -39 63 -39 102 0 19 -4 43 -9 52 -13 25 -17 67
-6 70 6 1 10 -6 11 -15 2 -30 15 -63 24 -63 19 0 23 54 10 139 -7 47 -15 138
-17 201 -4 95 -8 119 -23 135 -13 14 -20 42 -24 95 -11 133 -18 180 -27 180
-5 0 -9 15 -9 34 0 19 -7 39 -16 47 -14 11 -15 30 -10 129 8 163 22 301 34
331 5 14 8 37 5 53 -3 15 0 39 7 54 7 15 20 43 28 62 25 59 28 64 40 68 15 5
17 -84 2 -93 -15 -10 -12 -71 5 -85 13 -10 15 -9 16 11 1 13 1 27 0 32 0 4 6
7 14 7 10 0 15 -10 15 -29 0 -17 5 -33 10 -36 18 -11 50 6 50 27 0 11 11 31
25 44 14 13 25 32 25 44 0 11 6 23 14 26 12 5 119 179 135 219 2 5 12 21 22
34 11 13 19 36 19 50 0 15 9 34 20 44 11 9 23 30 26 45 5 27 79 120 88 111 2
-2 1 -49 -3 -105 -5 -69 -13 -108 -24 -124 -21 -30 -23 -90 -4 -90 8 0 22 19
33 43 10 23 42 79 71 124 35 53 53 93 53 112 0 24 4 31 19 31 15 0 20 10 26
47 4 25 14 58 23 72 17 25 17 25 20 -43 3 -60 0 -70 -18 -83z m3710 128 c0 -6
-4 -13 -10 -16 -5 -3 -10 1 -10 9 0 9 5 16 10 16 6 0 10 -4 10 -9z m-80 -37
c0 -8 -4 -12 -10 -9 -5 3 -10 10 -10 16 0 5 5 9 10 9 6 0 10 -7 10 -16z m220
-33 c0 -11 11 -33 25 -49 18 -22 21 -32 13 -40 -30 -30 -68 -1 -83 61 -4 15
-11 27 -17 27 -5 0 -6 5 -3 10 3 6 19 10 36 10 22 0 29 -5 29 -19z m-161 -45
c-9 -10 -49 25 -49 42 0 13 6 11 27 -10 15 -15 25 -30 22 -32z m-1064 -27 c11
-10 37 -34 58 -54 32 -30 44 -35 68 -30 26 6 29 4 29 -19 0 -23 2 -25 26 -15
32 11 64 3 64 -17 0 -8 7 -14 15 -14 8 0 15 -4 15 -9 0 -5 11 -12 24 -15 13
-3 31 -17 40 -31 9 -14 23 -25 31 -25 8 0 15 -4 15 -9 0 -5 13 -14 29 -19 17
-6 40 -22 52 -36 13 -14 31 -26 42 -26 10 0 33 -11 49 -25 24 -20 33 -23 44
-14 26 21 15 38 -47 70 -34 18 -66 42 -71 54 -5 12 -23 26 -39 32 -16 6 -29
16 -29 21 0 12 56 42 76 42 22 0 28 -23 9 -36 -10 -8 -15 -17 -10 -21 4 -5 10
-3 12 4 5 14 64 -14 97 -47 38 -36 84 -70 96 -70 7 0 23 -11 36 -25 13 -14 34
-25 47 -25 15 0 31 -10 41 -25 12 -18 25 -25 50 -25 21 0 36 -6 40 -15 3 -8
14 -15 24 -15 11 0 25 -7 32 -15 8 -9 29 -15 56 -15 32 0 46 -5 58 -21 12 -18
21 -21 51 -16 27 4 52 -1 92 -18 31 -14 61 -25 69 -25 7 0 16 -9 19 -21 8 -26
55 -45 66 -27 10 16 19 6 22 -23 3 -32 47 -89 68 -89 10 0 21 -4 24 -10 3 -5
-3 -10 -14 -10 -11 0 -22 4 -26 9 -3 5 -20 12 -38 16 -50 10 -169 57 -196 77
-13 10 -38 18 -55 18 -17 0 -58 14 -90 30 -33 17 -66 28 -75 25 -14 -6 -14 -7
2 -16 9 -6 17 -16 17 -24 0 -8 14 -21 30 -30 17 -9 30 -19 30 -24 0 -5 20 -14
44 -21 25 -7 47 -18 50 -25 9 -24 -37 -22 -87 3 -60 29 -124 28 -119 -2 3 -14
-1 -17 -15 -12 -16 5 -16 5 1 -9 11 -8 27 -15 36 -15 19 0 40 -19 40 -35 0 -7
-14 -11 -32 -10 -44 1 -148 45 -148 62 0 8 -13 13 -36 13 -40 0 -77 16 -69 31
11 17 85 10 114 -12 37 -27 65 -22 69 12 3 27 -3 31 -87 58 -60 19 -167 8
-132 -13 6 -4 11 -17 11 -29 0 -20 0 -20 -15 -1 -14 19 -14 19 -15 -1 -1 -19
-2 -19 -20 3 -17 20 -32 25 -101 29 -72 5 -82 8 -91 29 -6 13 -19 24 -28 24
-20 0 -96 36 -104 49 -4 5 -19 12 -36 16 -20 4 -27 11 -23 21 4 10 -3 14 -22
14 -18 0 -25 4 -21 13 3 6 9 20 12 30 7 18 34 24 34 7 0 -5 8 -10 18 -10 22 0
94 -25 142 -50 20 -10 40 -16 44 -13 10 10 54 -18 59 -38 6 -22 66 -41 86 -25
11 8 9 13 -9 28 -12 10 -32 18 -44 18 -11 0 -35 14 -53 30 -18 17 -39 30 -47
30 -9 0 -16 5 -16 10 0 6 -9 10 -20 10 -11 0 -20 5 -20 10 0 6 -7 10 -15 10
-26 0 -62 29 -76 62 -12 29 -14 30 -62 25 -48 -6 -49 -6 -43 19 5 20 2 26 -19
34 -14 5 -25 14 -25 20 0 6 -11 16 -25 22 -14 6 -25 17 -25 23 0 7 -19 32 -42
57 -95 98 -138 150 -138 164 0 17 13 12 45 -17z m-4014 -12 c-8 -8 -11 -7 -11
4 0 20 13 34 18 19 3 -7 -1 -17 -7 -23z m5414 13 c3 -5 1 -10 -4 -10 -6 0 -11
5 -11 10 0 6 2 10 4 10 3 0 8 -4 11 -10z m-5444 -93 c-8 -8 -11 -2 -11 19 0
40 14 54 18 19 2 -15 -1 -32 -7 -38z m5557 57 c24 -7 26 -12 13 -32 -7 -12
-14 -11 -40 2 -47 25 -29 44 27 30z m-4048 -18 c0 -3 -4 -8 -10 -11 -5 -3 -10
-1 -10 4 0 6 5 11 10 11 6 0 10 -2 10 -4z m-64 -149 c-14 -30 -26 -59 -26 -66
0 -7 -4 -9 -10 -6 -5 3 -10 1 -10 -6 0 -7 -3 -10 -6 -7 -3 3 4 24 15 47 12 22
21 45 21 50 0 5 5 22 10 37 8 20 14 24 22 16 8 -8 4 -25 -16 -65z m2153 -4 c1
-12 6 -23 12 -25 6 -2 9 -15 7 -28 -4 -23 -5 -22 -21 14 -9 21 -17 53 -16 70
0 26 2 28 9 11 5 -11 9 -30 9 -42z m-3664 -85 c-9 -51 -8 -50 -28 -43 -13 6
-13 10 1 46 20 52 36 50 27 -3z m1437 -70 c-9 -17 -24 -33 -32 -37 -8 -3 -15
-15 -15 -26 0 -11 -6 -19 -12 -17 -7 1 -13 -7 -13 -18 0 -11 -4 -20 -10 -20
-15 0 -11 21 11 55 10 17 23 40 29 53 5 12 14 22 20 22 5 0 10 7 10 15 0 9 6
12 15 9 13 -5 13 -10 -3 -36z m2322 -54 c13 -33 23 -61 20 -63 -7 -7 -34 21
-34 36 0 8 -7 29 -16 46 -41 79 -44 92 -15 60 11 -12 31 -47 45 -79z m528 28
c-2 -13 3 -25 12 -28 9 -3 16 -13 16 -22 0 -11 -13 -3 -40 23 -22 21 -40 42
-40 46 0 3 12 6 28 5 22 -1 26 -5 24 -24z m1618 18 c12 -8 9 -10 -12 -10 -16
0 -28 5 -28 10 0 13 20 13 40 0z m-6030 -21 c0 -11 -4 -17 -10 -14 -5 3 -10
13 -10 21 0 8 5 14 10 14 6 0 10 -9 10 -21z m6307 -9 l24 -19 -38 -10 c-50
-13 -264 -20 -260 -8 1 4 6 7 10 5 3 -2 14 8 23 21 14 19 14 25 3 33 -9 6 25
8 100 4 91 -5 118 -10 138 -26z m-2507 -24 c0 -8 -4 -18 -10 -21 -5 -3 -10 3
-10 14 0 12 5 21 10 21 6 0 10 -6 10 -14z m2195 -25 c-9 -8 -47 -15 -68 -12
-5 1 -5 6 -2 11 3 6 23 10 43 10 22 0 32 -4 27 -9z m-2275 -50 c-11 -28 -45
-50 -57 -37 -12 12 20 65 40 68 30 5 31 3 17 -31z m2493 -3 c10 -5 27 -6 38
-3 23 8 79 -3 79 -15 0 -4 -34 -11 -76 -15 -50 -4 -77 -11 -81 -21 -8 -21 -57
-17 -78 6 -11 12 -31 20 -50 20 -37 0 -55 25 -24 33 10 3 19 1 19 -5 0 -5 7
-2 17 7 13 14 27 15 77 10 34 -4 69 -12 79 -17z m-2283 -8 c0 -5 -4 -10 -10
-10 -5 0 -10 5 -10 10 0 6 5 10 10 10 6 0 10 -4 10 -10z m-2483 -22 c-3 -8 -6
-5 -6 6 -1 11 2 17 5 13 3 -3 4 -12 1 -19z m-23 -23 c-4 -8 -14 -15 -23 -15
-14 1 -13 3 3 15 25 19 27 19 20 0z m2520 9 c9 -3 16 -13 16 -21 0 -10 -6 -13
-16 -9 -9 3 -18 6 -20 6 -2 0 -4 7 -4 15 0 17 2 18 24 9z m44 -79 c-3 -3 -9 2
-12 12 -6 14 -5 15 5 6 7 -7 10 -15 7 -18z m-2641 -7 c-3 -8 -6 -5 -6 6 -1 11
2 17 5 13 3 -3 4 -12 1 -19z m4349 -35 c-8 -8 -36 5 -36 17 0 7 6 7 21 0 11
-7 18 -14 15 -17z m-5955 -30 c-8 -29 -31 -44 -31 -20 0 26 11 47 25 47 9 0
11 -8 6 -27z m6016 1 c-3 -3 -12 -4 -19 -1 -8 3 -5 6 6 6 11 1 17 -2 13 -5z
m46 -46 c20 -21 49 -69 44 -74 -10 -10 -38 10 -43 32 -4 17 -13 24 -29 24 -29
0 -42 17 -18 23 30 8 34 7 46 -5z m-1464 -54 c3 -16 1 -17 -13 -5 -19 16 -21
34 -3 29 6 -3 14 -13 16 -24z m91 -73 c5 -11 19 -22 30 -26 11 -3 19 -11 17
-18 -1 -6 7 -11 17 -12 20 0 36 -25 17 -25 -10 0 -101 58 -101 65 0 2 -3 10
-6 19 -9 23 13 20 26 -3z m-1843 -63 c13 -17 44 -110 39 -116 -4 -4 -66 111
-66 123 0 10 18 5 27 -7z m3320 -30 c-3 -8 -6 -5 -6 6 -1 11 2 17 5 13 3 -3 4
-12 1 -19z m-1332 -13 c34 -28 32 -30 -14 -14 -17 6 -31 17 -31 25 0 20 10 17
45 -11z m140 -95 c23 -26 8 -26 -25 0 -18 14 -21 20 -9 20 9 0 24 -9 34 -20z
m1179 -107 c-4 -16 -13 -31 -20 -36 -7 -4 -18 -23 -24 -42 -12 -38 -30 -47
-30 -16 0 38 46 121 68 121 9 0 10 -8 6 -27z m-364 -115 c0 -19 -2 -20 -10 -8
-13 19 -13 30 0 30 6 0 10 -10 10 -22z m159 -36 c20 -81 20 -82 0 -92 -10 -6
-19 -17 -19 -24 0 -23 -23 -34 -56 -25 l-30 9 10 72 c17 115 72 150 95 60z
m231 -156 c0 -8 -16 -16 -41 -20 -47 -7 -49 -29 -3 -34 33 -4 55 -19 53 -36
-3 -27 2 -36 21 -36 32 0 23 -17 -9 -18 -16 0 -35 6 -42 14 -9 11 -23 13 -51
9 -25 -5 -44 -2 -53 5 -16 13 -20 31 -7 29 22 -4 32 3 32 21 0 24 1 24 -43 5
-20 -8 -56 -15 -80 -15 -43 0 -89 22 -75 35 12 12 89 24 154 25 42 0 65 5 74
15 16 19 70 20 70 1z m-1870 -103 c0 -13 5 -33 11 -44 8 -16 7 -26 -5 -44 -9
-14 -16 -45 -16 -70 0 -43 1 -44 20 -33 28 18 54 -1 56 -39 1 -17 6 -38 11
-48 14 -24 4 -104 -16 -135 -9 -13 -27 -36 -39 -50 -13 -14 -37 -44 -52 -66
-15 -23 -35 -50 -44 -60 -116 -138 -630 -653 -672 -674 -28 -14 -111 -73 -145
-102 -8 -8 -58 -42 -110 -76 -52 -34 -111 -74 -132 -90 -49 -35 -114 -72 -202
-117 -38 -20 -88 -47 -110 -61 -22 -13 -61 -35 -86 -48 -25 -14 -51 -32 -58
-40 -8 -9 -20 -16 -27 -16 -20 0 -74 -79 -74 -109 l0 -26 -23 29 c-29 36 -25
71 11 94 14 9 36 41 49 72 14 30 31 62 38 70 7 8 15 31 17 50 3 31 7 35 33 38
38 5 51 16 58 50 4 20 19 34 54 53 42 22 48 29 48 56 0 20 9 40 23 53 15 14
22 30 19 41 -3 11 -1 17 4 13 10 -6 13 27 10 104 -2 38 3 61 18 88 27 46 30
177 4 206 -21 23 -95 26 -87 3 7 -16 -4 -18 -85 -19 -43 -1 -45 -2 -75 -58
-23 -42 -35 -56 -47 -52 -12 3 -19 -3 -23 -21 -4 -14 -20 -54 -36 -87 -17 -34
-30 -68 -30 -75 0 -8 -7 -16 -15 -19 -8 -4 -15 -13 -15 -21 0 -15 -29 -91 -60
-158 -10 -22 -21 -50 -25 -62 -3 -11 -12 -23 -19 -26 -18 -7 -4 68 18 92 9 9
16 29 16 43 0 14 6 31 14 37 7 6 16 36 20 66 3 30 10 65 15 77 5 13 15 43 22
68 7 25 24 63 36 85 14 25 23 57 23 85 1 47 18 68 66 84 11 3 31 24 45 46 13
22 30 38 37 35 19 -7 115 15 133 31 8 8 25 14 37 14 35 0 72 22 78 46 7 29 52
61 59 42 28 -79 42 -110 50 -109 6 0 13 35 16 76 5 60 11 81 28 96 22 21 41
18 41 -7 0 -8 5 -14 10 -14 16 0 12 91 -5 110 -16 17 -19 57 -9 108 5 26 9 30
20 21 8 -6 14 -29 14 -50 0 -21 5 -41 10 -44 6 -4 10 7 10 27 0 59 8 62 91 43
102 -23 269 -23 334 0 90 31 250 129 322 196 17 16 35 29 40 29 6 0 21 13 36
29 14 16 31 33 39 38 7 4 31 30 53 58 80 99 125 124 125 68z m1978 -120 c6
-19 -35 -16 -42 3 -4 11 0 15 16 12 12 -2 23 -9 26 -15z m-424 -9 c9 -3 16
-12 16 -20 0 -9 11 -14 28 -14 15 0 34 -5 42 -10 39 -26 -69 -42 -113 -17 -66
36 -76 67 -23 67 19 0 41 -3 50 -6z m542 -95 c19 -37 4 -44 -40 -18 -42 25
-60 52 -51 79 6 19 8 19 41 -7 19 -14 42 -39 50 -54z m-153 64 c-7 -2 -21 -2
-30 0 -10 3 -4 5 12 5 17 0 24 -2 18 -5z m-92 -43 c32 0 21 -16 -21 -30 -31
-10 -43 -11 -52 -2 -9 9 -7 15 8 27 10 8 25 12 32 10 8 -3 22 -5 33 -5z m109
-30 c0 -5 -7 -10 -16 -10 -9 0 -14 -7 -12 -17 2 -14 16 -17 81 -17 63 -1 80
-4 88 -18 5 -10 16 -15 24 -12 8 4 15 1 15 -5 0 -6 10 -21 23 -33 12 -13 32
-37 44 -55 l22 -33 -22 0 c-42 0 -93 20 -115 45 -12 14 -26 25 -32 25 -5 0
-10 6 -10 13 0 18 -77 39 -136 36 -61 -3 -94 13 -87 41 4 14 17 22 44 26 22 4
42 11 45 15 7 12 44 11 44 -1z m-1197 -127 c23 -21 22 -36 -2 -23 -11 5 -35
10 -53 10 -18 0 -40 5 -48 10 -12 7 -10 11 10 19 30 12 68 5 93 -16z m787 -42
c0 -5 16 -15 35 -22 48 -18 44 -24 -13 -23 -95 3 -159 54 -67 54 25 0 45 -4
45 -9z m-4900 -74 c0 -20 -25 1 -28 24 -2 23 -2 23 13 5 8 -11 15 -24 15 -29z
m1920 0 c0 -60 -55 -78 -74 -26 -13 39 -3 54 38 57 35 3 36 1 36 -31z m1810 2
c0 -4 -7 -6 -15 -3 -8 4 -15 10 -15 15 0 4 7 6 15 3 8 -4 15 -10 15 -15z
m1896 -11 c26 -18 52 -41 58 -50 16 -27 -2 -34 -24 -10 -12 12 -27 22 -35 22
-8 0 -15 4 -15 8 0 5 -11 14 -24 21 -20 11 -28 10 -50 -4 -15 -10 -29 -15 -32
-12 -9 9 6 27 22 27 8 0 14 7 14 15 0 24 34 17 86 -17z m-681 -18 c3 -5 17
-10 31 -10 13 0 24 -5 24 -11 0 -14 -52 -7 -100 14 l-35 15 37 1 c20 1 40 -3
43 -9z m152 4 c-3 -3 -12 -4 -19 -1 -8 3 -5 6 6 6 11 1 17 -2 13 -5z m255 -29
c12 -15 30 -25 46 -25 41 0 72 -11 72 -25 0 -26 -35 -24 -114 6 -91 36 -101
43 -92 58 13 21 67 12 88 -14z m-914 -14 c9 -6 29 -12 45 -16 28 -5 33 -19 18
-43 -6 -11 -18 -6 -54 20 -25 18 -46 36 -46 41 -1 10 16 9 37 -2z m-4378 -21
c0 -11 -4 -20 -10 -20 -5 0 -10 9 -10 20 0 11 5 20 10 20 6 0 10 -9 10 -20z
m1957 -26 c3 -8 1 -25 -5 -37 -5 -12 -13 -30 -16 -39 -6 -20 -41 -24 -52 -7
-4 7 3 19 16 29 13 10 20 22 16 29 -8 12 10 41 26 41 5 0 11 -7 15 -16z m2961
-40 c7 -8 26 -14 42 -14 16 0 31 -4 35 -9 3 -6 33 -18 67 -28 50 -15 62 -23
70 -45 6 -16 15 -28 21 -28 6 0 7 -3 4 -7 -4 -3 -28 3 -55 14 -43 19 -125 44
-194 58 -16 3 -28 12 -28 19 0 9 -16 17 -40 21 -42 7 -50 18 -25 32 21 12 86
3 103 -13z m-4857 -22 c5 -12 5 -22 2 -22 -10 0 -53 42 -53 51 0 17 44 -9 51
-29z m1717 -78 c1 -10 -4 -28 -12 -39 -14 -19 -15 -17 -16 23 0 31 4 42 13 40
6 -3 13 -13 15 -24z m2912 -58 c-5 -5 -17 -5 -27 -2 -17 7 -17 8 1 22 16 11
21 11 27 2 5 -7 4 -17 -1 -22z m-150 4 c0 -5 -7 -10 -15 -10 -8 0 -15 5 -15
10 0 6 7 10 15 10 8 0 15 -4 15 -10z m742 -35 c0 -5 -5 -11 -11 -13 -6 -2 -11
4 -11 13 0 9 5 15 11 13 6 -2 11 -8 11 -13z m-5272 -35 c0 -10 6 -23 14 -27 7
-4 18 -18 25 -30 13 -25 15 -113 3 -113 -21 0 -41 28 -44 60 -2 21 -8 34 -15
33 -14 -3 -19 88 -7 100 11 10 24 -3 24 -23z m4723 -57 c10 -13 55 -43 101
-68 45 -25 91 -54 100 -64 10 -11 31 -23 47 -26 16 -4 49 -26 75 -50 35 -34
44 -48 39 -64 -4 -15 -15 -21 -36 -21 -45 0 -83 24 -155 97 -64 65 -66 66 -97
55 -37 -14 -46 -8 -24 16 25 27 22 45 -7 38 -19 -5 -30 3 -61 38 -26 31 -42
42 -56 39 -26 -7 -25 24 1 32 11 3 20 11 20 17 0 13 27 -8 53 -39z m380 -150
c-7 -2 -21 -2 -30 0 -10 3 -4 5 12 5 17 0 24 -2 18 -5z m-275 -29 c14 -15 14
-16 -3 -13 -10 2 -20 10 -23 17 -5 17 6 15 26 -4z m-4258 -53 c0 -23 -8 -48
-20 -64 -11 -14 -20 -38 -20 -54 0 -19 -9 -38 -25 -53 -14 -13 -25 -33 -25
-44 0 -12 -9 -27 -20 -34 -11 -6 -29 -29 -40 -49 -64 -116 -78 -127 -94 -75
-7 19 -12 21 -47 16 -36 -6 -39 -5 -39 17 0 12 8 32 19 43 24 28 41 79 34 106
-4 13 0 26 8 31 24 15 31 10 27 -21 -3 -22 -1 -30 10 -30 9 0 24 -7 34 -17 19
-17 26 -5 7 14 -17 17 6 51 46 67 22 10 39 26 48 48 8 18 26 47 40 64 15 18
27 41 27 53 0 12 6 21 15 21 11 0 15 -11 15 -39z m4260 -21 c0 -13 7 -20 20
-20 11 0 20 -7 20 -15 0 -23 -25 -18 -59 12 -38 33 -39 43 -6 43 18 0 25 -5
25 -20z m-428 -96 c20 -28 42 -64 51 -80 8 -16 31 -46 51 -66 20 -20 36 -42
36 -48 0 -19 -32 -10 -37 10 -3 11 -9 20 -14 20 -11 0 -99 81 -99 92 0 6 -9
22 -19 37 -22 31 -29 61 -17 79 4 7 9 12 11 10 1 -2 18 -26 37 -54z m498 36
c0 -5 -8 -10 -17 -10 -15 0 -16 2 -3 10 19 12 20 12 20 0z m70 -39 c0 -16 -13
-19 -36 -9 -13 6 -21 14 -19 18 6 9 55 0 55 -9z m30 -47 c0 -8 -5 -12 -10 -9
-6 4 -8 11 -5 16 9 14 15 11 15 -7z m-4356 -50 c14 -37 5 -66 -31 -99 -49 -45
-68 -29 -24 20 20 23 31 46 31 65 0 32 14 40 24 14z m3979 -20 c3 -19 1 -24
-10 -20 -8 4 -26 9 -39 12 -42 11 -27 25 32 33 7 0 14 -11 17 -25z m144 0 c22
-24 23 -30 12 -55 -9 -24 -18 -29 -44 -29 -19 0 -39 8 -49 19 -15 17 -16 23
-5 43 7 13 12 29 11 36 -5 23 50 13 75 -14z m441 6 c3 -7 0 -10 -6 -6 -6 3
-13 0 -15 -6 -3 -7 -6 -2 -6 10 -1 25 19 26 27 2z m-4048 -10 c0 -5 -4 -10
-10 -10 -5 0 -10 5 -10 10 0 6 5 10 10 10 6 0 10 -4 10 -10z m-71 -19 c11 -7
9 -11 -9 -21 -25 -13 -35 -8 -27 15 7 17 16 19 36 6z m-69 -62 c0 -15 -64 -71
-68 -59 -5 15 37 70 54 70 8 0 14 -5 14 -11z m3588 -22 c48 -24 102 -28 181
-11 26 6 33 4 29 -7 -6 -18 -63 -38 -112 -38 -38 -1 -156 52 -156 70 0 13 6
11 58 -14z m262 19 c0 -2 -3 -11 -6 -20 -9 -23 -24 -20 -24 4 0 11 7 20 15 20
8 0 15 -2 15 -4z m450 -93 c11 -30 20 -64 20 -76 0 -13 5 -28 11 -34 5 -5 9
-30 7 -54 l-3 -44 -13 50 c-8 28 -16 66 -19 85 -3 19 -14 46 -25 60 -10 14
-21 44 -24 65 -5 38 -4 39 10 21 9 -11 25 -44 36 -73z m-4170 32 c0 -8 -2 -15
-4 -15 -2 0 -6 7 -10 15 -3 8 -1 15 4 15 6 0 10 -7 10 -15z m3280 -21 c22 -15
37 -31 34 -36 -4 -6 2 -7 16 -3 14 4 50 -1 94 -15 39 -13 77 -24 84 -26 15 -4
16 -62 2 -99 -8 -20 -14 -24 -23 -17 -6 6 -23 12 -37 14 -19 2 -25 9 -25 28 0
14 -4 31 -8 38 -14 21 -27 13 -27 -17 0 -29 -21 -57 -33 -44 -4 3 -7 21 -7 39
0 39 -23 51 -42 22 -14 -21 -14 -20 -88 17 -91 47 -84 41 -76 60 5 15 7 15 22
1 22 -22 31 -20 11 2 -18 19 -22 44 -10 55 15 16 76 5 113 -19z m-4110 -20 c0
-8 -4 -14 -10 -14 -5 0 -10 9 -10 21 0 11 5 17 10 14 6 -3 10 -13 10 -21z
m640 18 c0 -13 -12 -22 -22 -16 -10 6 -1 24 13 24 5 0 9 -4 9 -8z m128 -15 c2
-10 -3 -17 -12 -17 -10 0 -16 9 -16 21 0 24 23 21 28 -4z m340 3 c3 -8 1 -12
-3 -8 -5 4 -14 3 -22 -3 -10 -9 -13 -7 -13 11 0 25 30 25 38 0z m3658 -41
c-13 -11 -28 -28 -31 -39 -4 -11 -14 -20 -24 -20 -10 0 -30 -9 -44 -20 -14
-11 -30 -20 -36 -20 -7 0 -28 -7 -49 -17 -39 -17 -119 -42 -139 -43 -20 0 -44
58 -41 97 2 29 8 37 26 40 18 2 25 -3 30 -19 5 -20 6 -21 12 -2 5 11 29 27 58
37 28 10 56 25 63 33 20 24 49 17 60 -16 13 -36 46 -40 74 -10 10 11 24 20 30
20 7 0 16 8 20 18 8 16 8 16 12 -1 3 -11 -5 -26 -21 -38z m-4571 22 c-3 -6
-11 -11 -17 -11 -6 0 -6 6 2 15 14 17 26 13 15 -4z m-54 -57 c-4 -16 -15 -30
-24 -32 -26 -5 -21 33 6 51 27 18 28 18 18 -19z m1083 -40 c-4 -15 -14 -21
-36 -22 l-30 -1 28 29 c31 31 47 28 38 -6z m-974 22 c0 -3 -4 -8 -10 -11 -5
-3 -10 -1 -10 4 0 6 5 11 10 11 6 0 10 -2 10 -4z m250 -30 c0 -7 -7 -19 -15
-26 -16 -13 -20 -3 -9 24 8 20 24 21 24 2z m-420 -10 c0 -3 -4 -8 -10 -11 -5
-3 -10 -1 -10 4 0 6 5 11 10 11 6 0 10 -2 10 -4z m380 -36 c0 -10 -13 -35 -30
-53 -16 -19 -30 -39 -30 -45 0 -5 -7 -16 -16 -23 -9 -8 -25 -32 -35 -55 -9
-23 -22 -45 -27 -48 -13 -8 -82 -152 -82 -171 0 -7 -6 -15 -12 -17 -10 -4 -13
-41 -13 -141 0 -132 -6 -162 -24 -114 -12 32 -23 194 -14 199 20 8 73 150 73
194 0 15 11 40 26 56 14 17 28 44 31 59 3 16 12 29 19 29 7 0 23 19 35 41 16
33 84 109 97 109 1 0 2 -9 2 -20z m147 -32 c-3 -8 -6 -5 -6 6 -1 11 2 17 5 13
3 -3 4 -12 1 -19z m-74 -69 c4 -16 -3 -30 -25 -50 -16 -16 -34 -29 -38 -29
-16 0 -20 18 -7 32 7 7 20 25 30 41 21 33 33 34 40 6z m-613 7 c0 -3 -4 -8
-10 -11 -5 -3 -10 -1 -10 4 0 6 5 11 10 11 6 0 10 -2 10 -4z m337 -68 c-3 -8
-6 -5 -6 6 -1 11 2 17 5 13 3 -3 4 -12 1 -19z m943 -25 c0 -10 -7 -43 -15 -73
-8 -30 -15 -72 -15 -92 0 -21 -6 -40 -14 -45 -9 -5 -13 -23 -12 -48 1 -30 -3
-40 -14 -40 -11 0 -15 11 -14 43 1 29 -3 42 -13 42 -16 0 -17 16 -2 26 6 3 9
14 6 24 -2 10 -1 24 4 31 5 9 3 16 -9 21 -16 6 -16 7 1 7 12 1 17 9 17 31 0
17 5 30 10 30 6 0 10 5 10 11 0 11 40 48 53 49 4 0 7 -8 7 -17z m-1275 -77
c-39 -85 -62 -95 -35 -16 15 45 58 106 67 96 2 -2 -12 -38 -32 -80z m622 -188
c-3 -8 -6 -5 -6 6 -1 11 2 17 5 13 3 -3 4 -12 1 -19z m433 -23 c0 -14 -4 -25
-10 -25 -5 0 -13 -12 -16 -27 -4 -16 -13 -36 -22 -45 -13 -16 -12 -18 12 -27
23 -9 26 -15 24 -58 -1 -30 7 -69 20 -103 12 -30 22 -71 22 -90 1 -19 7 -46
15 -60 8 -14 14 -40 15 -58 0 -18 9 -50 20 -72 21 -42 27 -100 10 -100 -11 0
-28 38 -37 85 -4 16 -12 36 -19 43 -7 7 -16 29 -19 50 -4 20 -15 66 -26 102
-24 81 -36 127 -44 162 -3 15 -12 33 -20 42 -18 18 -19 33 -2 39 6 2 9 8 5 11
-3 4 -19 -6 -34 -23 -15 -17 -37 -31 -49 -31 -14 0 -25 -8 -28 -20 -6 -23 -27
-27 -27 -6 0 16 26 46 41 46 5 0 9 5 9 10 0 6 18 28 39 49 21 21 42 53 46 70
4 19 17 36 33 45 38 20 42 19 42 -9z m100 -159 c-7 -7 -10 1 -9 25 0 32 1 33
10 10 6 -16 6 -28 -1 -35z m-981 -108 c-2 -167 -16 -143 -18 30 -1 69 3 112 9
112 6 0 10 -53 9 -142z m426 40 c-5 -40 -9 -85 -9 -100 -1 -40 -21 -56 -36
-28 -9 17 -9 25 3 38 8 9 17 42 21 74 3 31 9 63 12 72 13 34 16 13 9 -56z
m-292 -41 c3 -22 2 -35 -4 -32 -5 4 -9 22 -9 42 0 45 5 40 13 -10z m68 -77
c12 -47 28 -92 34 -100 23 -28 35 -78 21 -83 -9 -4 -30 29 -60 91 -47 98 -54
126 -36 137 6 3 10 18 11 33 1 31 0 33 30 -78z m449 90 c0 -5 -4 -10 -9 -10
-6 0 -13 5 -16 10 -3 6 1 10 9 10 9 0 16 -4 16 -10z m410 -76 c0 -8 -4 -12
-10 -9 -5 3 -10 13 -10 21 0 8 5 12 10 9 6 -3 10 -13 10 -21z m-756 -69 c3 -8
1 -15 -4 -15 -6 0 -10 7 -10 15 0 8 2 15 4 15 2 0 6 -7 10 -15z m-401 -105 c3
-11 1 -20 -4 -20 -5 0 -9 4 -9 9 0 5 -3 17 -7 27 -4 11 -3 15 4 11 6 -4 13
-16 16 -27z m397 -66 c13 -37 9 -51 -10 -39 -15 9 -32 54 -24 66 11 18 23 9
34 -27z m730 -101 c0 -30 -14 -29 -28 2 -17 37 -15 47 8 33 11 -7 20 -23 20
-35z m-890 -36 c0 -10 -4 -15 -10 -12 -5 3 -10 18 -10 33 0 21 2 24 10 12 5
-8 10 -23 10 -33z"/>
<path d="M2813 7175 c0 -22 2 -30 4 -17 2 12 2 30 0 40 -3 9 -5 -1 -4 -23z"/>
<path d="M2787 6993 c-2 -4 -1 -28 2 -53 l7 -45 6 45 c6 41 -3 74 -15 53z"/>
<path d="M2475 6591 c-7 -12 12 -24 25 -16 11 7 4 25 -10 25 -5 0 -11 -4 -15
-9z"/>
<path d="M2451 6497 c-13 -21 -12 -21 5 -5 10 10 16 20 13 22 -3 3 -11 -5 -18
-17z"/>
<path d="M1925 6119 c-4 -6 -4 -13 -1 -16 8 -8 36 5 36 17 0 13 -27 13 -35 -1z"/>
<path d="M1881 6081 c-14 -9 -12 -44 3 -45 5 -1 14 7 20 16 13 21 -3 41 -23
29z"/>
<path d="M2760 4100 c0 -5 5 -10 11 -10 5 0 7 5 4 10 -3 6 -8 10 -11 10 -2 0
-4 -4 -4 -10z"/>
<path d="M2700 4011 c-13 -26 -13 -31 4 -31 13 0 26 20 26 41 0 16 -19 10 -30
-10z"/>
<path d="M2661 3956 c-8 -10 -9 -16 -1 -21 13 -8 30 3 30 21 0 18 -14 18 -29
0z"/>
<path d="M2627 3893 c-4 -3 -7 -11 -7 -17 0 -6 5 -5 12 2 6 6 9 14 7 17 -3 3
-9 2 -12 -2z"/>
<path d="M2385 3848 c-2 -7 -5 -32 -7 -56 -3 -37 -2 -41 9 -26 7 10 13 35 13
56 0 38 -7 50 -15 26z"/>
<path d="M2601 3834 c0 -11 3 -14 6 -6 3 7 2 16 -1 19 -3 4 -6 -2 -5 -13z"/>
<path d="M2577 3793 c-4 -3 -7 -13 -7 -22 1 -13 3 -13 11 2 11 19 8 33 -4 20z"/>
<path d="M2391 3594 c0 -11 3 -14 6 -6 3 7 2 16 -1 19 -3 4 -6 -2 -5 -13z"/>
<path d="M2391 3394 c0 -11 3 -14 6 -6 3 7 2 16 -1 19 -3 4 -6 -2 -5 -13z"/>
<path d="M6457 4093 c-13 -13 -7 -32 8 -27 8 4 15 12 15 20 0 15 -12 19 -23 7z"/>
<path d="M4372 2143 c-1 -12 -13 -35 -27 -51 -27 -33 -33 -51 -10 -32 8 6 23
9 34 5 21 -6 40 13 23 24 -6 3 -12 22 -15 41 -2 19 -5 25 -5 13z"/>
<path d="M2602 1520 c0 -14 2 -19 5 -12 2 6 2 18 0 25 -3 6 -5 1 -5 -13z"/>
<path d="M6858 1283 c7 -3 16 -2 19 1 4 3 -2 6 -13 5 -11 0 -14 -3 -6 -6z"/>
<path d="M5531 8414 c0 -11 3 -14 6 -6 3 7 2 16 -1 19 -3 4 -6 -2 -5 -13z"/>
<path d="M3490 7240 c0 -17 7 -20 39 -20 26 0 41 5 45 16 9 24 9 24 -39 24
-38 0 -45 -3 -45 -20z"/>
<path d="M5390 7046 c0 -8 5 -18 10 -21 6 -3 10 1 10 9 0 8 -4 18 -10 21 -5 3
-10 -1 -10 -9z"/>
<path d="M5420 6996 c0 -8 5 -18 10 -21 6 -3 10 3 10 14 0 12 -4 21 -10 21 -5
0 -10 -6 -10 -14z"/>
<path d="M5370 6877 c0 -7 3 -30 7 -52 5 -31 8 -35 14 -20 13 33 10 73 -6 79
-8 3 -15 0 -15 -7z"/>
<path d="M6462 6463 c2 -10 13 -19 26 -21 24 -4 29 7 10 26 -18 18 -40 15 -36
-5z"/>
<path d="M6521 6427 c2 -1 12 -9 22 -16 14 -12 17 -11 17 3 0 10 -8 16 -22 16
-12 0 -19 -1 -17 -3z"/>
<path d="M3950 6400 c0 -17 7 -20 40 -20 44 0 49 6 23 26 -28 21 -63 18 -63
-6z"/>
<path d="M3670 6385 c0 -8 -4 -15 -8 -15 -9 0 -102 -138 -102 -152 0 -4 9 -8
20 -8 11 0 20 7 20 15 0 9 14 24 31 33 18 10 32 28 36 45 3 15 10 30 14 33 12
7 11 64 -1 64 -5 0 -10 -7 -10 -15z"/>
<path d="M4938 6289 c-3 -10 -57 -25 -120 -33 -20 -2 -46 -15 -62 -31 -31 -31
-33 -38 -7 -30 11 3 22 1 26 -5 3 -5 14 -10 24 -10 10 0 25 -8 35 -19 15 -16
15 -19 1 -31 -8 -7 -15 -21 -15 -31 0 -21 -15 -25 -25 -8 -5 6 -13 2 -22 -11
-13 -19 -13 -23 2 -40 15 -17 16 -24 5 -50 -7 -17 -20 -30 -29 -30 -10 0 -28
-11 -41 -25 -13 -14 -31 -25 -41 -25 -18 0 -35 -17 -26 -26 11 -11 91 23 112
49 13 15 33 27 44 27 11 0 27 7 35 15 8 9 32 22 53 29 30 10 39 19 43 43 3 16
17 43 32 59 52 54 98 116 98 129 0 8 8 18 18 24 11 6 14 13 7 19 -15 14 -143
23 -147 11z"/>
<path d="M4632 6183 c-19 -7 -4 -23 24 -23 15 0 24 6 24 15 0 15 -22 19 -48 8z"/>
<path d="M4454 6139 c-3 -5 1 -9 8 -10 7 0 26 -3 41 -5 21 -4 28 -1 25 8 -5
14 -66 20 -74 7z"/>
<path d="M4361 6085 c-18 -8 -61 -15 -96 -15 -34 0 -84 -7 -111 -15 -33 -10
-87 -15 -164 -14 -64 1 -128 -4 -143 -10 -16 -6 -41 -11 -57 -11 -31 0 -80
-19 -80 -30 0 -12 -50 -30 -84 -30 -19 0 -39 -7 -46 -15 -10 -12 -7 -15 17
-21 72 -16 101 -26 138 -49 73 -46 145 -75 183 -75 20 0 55 -10 77 -21 29 -16
36 -17 26 -5 -8 9 -11 26 -7 40 10 41 -1 55 -38 49 -37 -6 -76 10 -76 32 0 54
60 99 135 102 53 1 149 20 176 33 9 5 42 11 75 15 66 7 128 31 119 46 -4 5 -7
9 -8 9 -1 -1 -17 -7 -36 -15z"/>
<path d="M4682 6013 c4 -36 33 -39 33 -3 0 16 -6 26 -18 28 -15 3 -18 -2 -15
-25z"/>
<path d="M6290 5872 c0 -4 32 -25 71 -47 38 -22 90 -53 114 -68 31 -20 51 -26
66 -22 l21 7 -24 25 c-12 14 -32 29 -43 34 -11 5 -32 18 -47 30 -14 12 -39 21
-55 21 -15 0 -34 5 -41 10 -14 12 -62 19 -62 10z"/>
<path d="M4076 5862 c-8 -14 5 -102 15 -102 5 0 9 8 9 18 0 10 5 23 11 29 15
15 7 57 -13 61 -9 2 -19 -1 -22 -6z"/>
<path d="M4194 5843 c-4 -16 -8 -32 -8 -38 -1 -5 -12 -12 -26 -13 -14 -2 -29
-8 -35 -13 -5 -6 22 -9 70 -8 66 1 76 3 62 14 -11 8 -17 26 -17 49 0 29 -4 36
-19 36 -12 0 -22 -10 -27 -27z"/>
<path d="M4370 5800 c0 -16 7 -20 33 -20 38 0 48 6 40 26 -3 8 -19 14 -39 14
-27 0 -34 -4 -34 -20z"/>
<path d="M6348 5740 c105 -108 209 -198 239 -208 29 -10 31 -9 36 16 3 15 2
33 -2 39 -9 16 -202 143 -217 143 -6 0 -17 6 -23 14 -6 8 -22 16 -36 18 l-24
5 27 -27z"/>
<path d="M6617 5753 c-14 -13 -6 -50 13 -68 11 -10 20 -24 20 -31 0 -7 11 -25
24 -41 21 -24 24 -40 26 -108 1 -44 2 -84 1 -89 -1 -14 -51 55 -51 71 0 7 -4
13 -10 13 -26 0 21 -130 50 -137 12 -3 21 -18 25 -45 4 -22 20 -65 36 -95 16
-30 29 -63 29 -73 0 -10 7 -21 16 -24 34 -13 43 -6 46 37 3 39 5 42 30 42 17
-1 30 5 33 15 8 27 7 94 -4 145 -5 28 -10 85 -10 128 -1 73 -3 78 -26 89 -14
6 -25 14 -25 18 0 4 -11 12 -25 18 -20 9 -25 19 -25 50 0 38 -2 40 -47 57 -27
10 -52 22 -57 26 -12 11 -60 12 -69 2z m227 -221 c0 -17 -7 -28 -17 -30 -22
-4 -31 21 -18 47 15 27 37 17 35 -17z"/>
<path d="M3350 5370 c0 -5 5 -10 11 -10 5 0 7 5 4 10 -3 6 -8 10 -11 10 -2 0
-4 -4 -4 -10z"/>
<path d="M6957 5259 c-7 -26 29 -126 49 -137 9 -5 16 -16 18 -25 1 -9 11 -27
23 -39 11 -13 24 -38 28 -55 6 -30 19 -39 49 -34 26 5 65 -13 74 -34 8 -17 8
-25 1 -25 -6 0 -3 -7 5 -16 9 -8 16 -19 16 -23 0 -14 76 -50 126 -61 27 -5 97
-12 156 -14 59 -2 112 -7 117 -11 15 -9 14 -25 -2 -25 -8 0 -29 -8 -48 -17
-19 -9 -46 -16 -61 -15 -14 1 -33 -5 -41 -13 -21 -21 -125 -21 -133 0 -4 8
-18 15 -34 15 -15 0 -53 11 -84 25 -31 14 -67 25 -79 24 -15 0 -8 -5 21 -16
33 -11 42 -20 42 -38 0 -18 11 -27 53 -45 28 -12 91 -44 139 -71 48 -27 94
-49 102 -49 8 0 27 -11 42 -25 15 -14 33 -25 40 -25 8 0 14 -5 14 -11 0 -5 4
-8 9 -5 10 7 61 -31 61 -46 0 -5 9 -21 20 -36 18 -22 30 -26 90 -29 69 -4 70
-3 132 42 35 25 71 48 80 51 9 4 19 19 22 35 3 16 9 43 12 59 3 18 10 28 17
24 7 -3 4 1 -7 10 -10 8 -18 26 -18 40 0 29 -43 80 -58 71 -6 -3 -14 5 -20 19
-5 14 -16 26 -24 26 -8 0 -32 11 -52 25 -20 14 -50 25 -65 25 -17 0 -32 7 -38
19 -6 10 -32 24 -58 31 -26 7 -66 23 -88 36 -22 12 -71 28 -110 34 -38 6 -93
16 -122 21 -37 7 -58 7 -73 -1 -17 -9 -21 -8 -27 7 -3 10 -15 29 -25 42 -10
13 -18 40 -18 59 0 19 -7 42 -14 51 -8 9 -34 37 -57 64 -23 26 -50 47 -60 47
-11 0 -28 9 -38 19 -45 45 -95 54 -104 20z m734 -449 c19 -11 27 -40 10 -40
-6 0 -23 11 -38 25 -23 20 -25 24 -10 25 10 0 27 -5 38 -10z"/>
<path d="M6947 5024 c-3 -4 4 -19 17 -35 13 -16 26 -33 28 -40 2 -6 28 -13 58
-15 30 -2 46 -1 35 2 -18 5 -58 43 -73 71 -8 14 -55 27 -65 17z"/>
<path d="M8131 4493 c-11 -21 -35 -57 -55 -79 -36 -42 -47 -47 -153 -60 -24
-4 -43 -10 -43 -15 0 -5 -11 -9 -23 -9 -13 0 -34 -9 -47 -20 l-23 -20 24 -2
c13 0 32 -1 42 0 10 1 17 -5 17 -17 0 -22 31 -37 84 -40 21 -1 45 -8 53 -16
19 -19 47 -19 64 1 10 13 10 17 -2 25 -11 7 -11 11 -2 17 7 4 14 34 16 67 2
37 8 60 16 63 11 4 12 -9 7 -61 -7 -60 -6 -66 16 -81 12 -9 35 -16 50 -16 l28
0 0 90 c0 54 -5 99 -12 111 -10 17 -10 23 0 26 18 7 15 60 -4 67 -27 10 -33 7
-53 -31z m19 -103 c0 -5 -7 -10 -15 -10 -8 0 -15 5 -15 10 0 6 7 10 15 10 8 0
15 -4 15 -10z m-220 -58 c0 -10 -22 -32 -32 -32 -13 0 -9 28 5 33 19 8 27 8
27 -1z"/>
<path d="M4307 3859 c-3 -11 -1 -34 5 -50 13 -38 54 -40 88 -4 19 20 21 27 10
40 -7 8 -23 15 -36 15 -12 0 -26 5 -29 10 -11 17 -32 11 -38 -11z"/>
<path d="M4618 3836 c-10 -7 -19 -25 -20 -40 -2 -21 -8 -26 -28 -26 -14 0 -32
-4 -40 -10 -12 -8 -12 -11 3 -28 9 -10 17 -31 17 -45 0 -21 6 -28 28 -33 15
-3 36 -8 47 -12 11 -4 56 -7 99 -7 77 0 79 1 82 25 2 14 6 43 9 65 9 64 -19
99 -91 113 -72 15 -85 15 -106 -2z"/>
<path d="M4990 3810 c-13 -9 -13 -11 0 -20 15 -10 25 0 18 20 -2 6 -8 6 -18 0z"/>
<path d="M4472 3788 c-16 -16 -15 -48 1 -48 28 0 40 17 28 39 -14 25 -13 25
-29 9z"/>
<path d="M5066 3684 c-7 -18 0 -34 15 -34 5 0 9 11 9 25 0 28 -15 34 -24 9z"/>
<path d="M4980 3640 c0 -5 11 -10 25 -10 14 0 25 5 25 10 0 6 -11 10 -25 10
-14 0 -25 -4 -25 -10z"/>
<path d="M4866 3604 c-4 -10 -2 -22 3 -27 15 -15 46 -3 46 18 0 26 -40 33 -49
9z"/>
<path d="M4320 3580 c0 -5 15 -10 33 -10 24 0 28 3 17 10 -20 13 -50 13 -50 0z"/>
<path d="M4532 3579 c-29 -11 -24 -33 7 -37 32 -5 50 14 31 32 -11 10 -22 11
-38 5z"/>
<path d="M784 3059 c-3 -6 7 -24 23 -40 24 -25 31 -27 45 -17 9 7 20 25 24 41
6 26 5 27 -39 27 -25 0 -49 -5 -53 -11z"/>
<path d="M741 2913 c-14 -32 -14 -40 6 -84 17 -39 47 -59 88 -59 20 0 25 5 25
24 0 13 -7 29 -14 36 -8 6 -16 30 -18 53 -3 40 -5 42 -40 48 -31 5 -38 2 -47
-18z"/>
<path d="M934 2731 c-8 -8 -4 -50 5 -55 4 -3 11 -19 14 -35 6 -27 33 -48 46
-35 3 3 6 33 6 66 l0 61 -33 1 c-19 1 -36 -1 -38 -3z"/>
<path d="M1867 2033 c-4 -3 -7 -17 -7 -31 0 -19 -4 -23 -20 -19 -26 7 -38 -13
-17 -28 10 -7 17 -17 17 -24 0 -25 84 -111 109 -111 39 0 43 33 11 84 -17 26
-37 49 -45 52 -8 4 -15 17 -15 29 0 43 -16 66 -33 48z"/>
<path d="M2042 1905 c0 -16 2 -22 5 -12 2 9 2 23 0 30 -3 6 -5 -1 -5 -18z"/>
<path d="M2070 1740 c0 -5 7 -10 15 -10 8 0 15 5 15 10 0 6 -7 10 -15 10 -8 0
-15 -4 -15 -10z"/>
<path d="M3453 1152 c-24 -4 -32 -32 -10 -32 18 0 52 26 41 31 -5 3 -19 3 -31
1z"/>
<path d="M1967 919 c5 -19 43 -33 43 -16 0 7 -11 17 -24 23 -20 9 -23 8 -19
-7z"/>
<path d="M3480 889 c0 -5 5 -7 10 -4 6 3 10 8 10 11 0 2 -4 4 -10 4 -5 0 -10
-5 -10 -11z"/>
<path d="M1910 841 c0 -12 -4 -21 -10 -21 -5 0 -10 -9 -10 -19 0 -11 -4 -22
-9 -25 -8 -5 -12 -20 -27 -93 -3 -16 22 -36 36 -28 5 3 10 22 10 40 0 35 37
125 52 125 4 0 8 7 8 15 0 8 -4 15 -9 15 -5 0 -16 3 -25 6 -12 4 -16 0 -16
-15z"/>
<path d="M3447 853 c-4 -3 -7 -11 -7 -17 0 -6 5 -5 12 2 6 6 9 14 7 17 -3 3
-9 2 -12 -2z"/>
<path d="M1380 832 c-57 -19 -57 -19 -34 -40 22 -19 101 -72 109 -72 3 0 15
21 26 46 12 25 28 48 36 51 7 3 13 11 13 19 0 19 -90 17 -150 -4z"/>
<path d="M1596 782 c-4 -10 -22 -35 -41 -56 -34 -37 -37 -56 -10 -56 7 0 15
-7 18 -14 3 -8 22 -18 41 -22 20 -3 36 -10 36 -15 0 -5 7 -9 14 -9 8 0 27 -11
42 -25 50 -46 81 -26 50 33 -7 15 -19 40 -27 55 -7 15 -28 42 -46 60 -18 18
-33 37 -33 43 0 7 -7 15 -16 18 -22 8 -22 8 -28 -12z"/>
<path d="M2220 501 c0 -6 6 -28 14 -48 8 -21 18 -60 22 -88 4 -27 9 -57 10
-65 2 -8 14 -25 28 -37 15 -12 26 -29 26 -38 0 -19 39 -99 46 -93 2 3 8 27 13
54 8 38 6 54 -5 71 -8 12 -14 38 -14 57 0 26 -7 40 -27 56 -16 11 -41 46 -58
77 -28 53 -55 79 -55 54z"/>
<path d="M7654 455 c-3 -14 -10 -22 -15 -19 -5 3 -9 -4 -9 -15 0 -12 -4 -40
-10 -63 -26 -114 -27 -127 -17 -137 18 -18 27 -13 27 13 0 13 5 26 11 28 6 2
13 41 16 91 3 48 10 90 14 93 12 7 11 34 -1 34 -5 0 -12 -11 -16 -25z"/>
<path d="M7470 302 c0 -10 -10 -28 -22 -39 -13 -12 -39 -43 -58 -70 -19 -26
-43 -55 -52 -64 -10 -9 -18 -21 -18 -28 0 -6 -22 -27 -50 -47 -27 -20 -50 -40
-50 -45 0 -5 61 -9 135 -9 129 0 135 1 135 20 0 12 10 25 24 31 14 7 28 26 35
49 18 59 14 85 -13 98 -26 12 -51 71 -43 103 3 12 0 19 -9 19 -8 0 -14 -8 -14
-18z"/>
<path d="M3195 208 c-3 -12 -1 -62 4 -83 4 -15 19 36 20 68 1 27 -16 38 -24
15z"/>
<path d="M3238 86 c-12 -8 -18 -27 -18 -50 l0 -36 50 0 c42 0 50 3 50 18 0 11
-9 27 -20 37 -11 10 -20 24 -20 32 0 17 -20 16 -42 -1z"/>
</g>
</svg>
